<svg width="80" height="81" viewBox="0 0 80 81" xmlns="http://www.w3.org/2000/svg" xmlns:xlink="http://www.w3.org/1999/xlink" fill="none" overflow="hidden"><style>
.MsftOfcThm_Background2_Fill_v2 {
 fill:#B4B9C0; 
}
</style>
<defs><clipPath id="clip0_56_2698"><rect x="0" y="0" width="80" height="80" fill="#FFFFFF" transform="matrix(1 0 0 1 0 0.797852)"/></clipPath></defs><g clip-path="url(#clip0_56_2698)"><path d="M20 34.8604C16.725 34.8604 14.0625 37.5229 14.0625 40.7979 14.0625 44.0729 16.725 46.7354 20 46.7354 23.275 46.7354 25.9375 44.0729 25.9375 40.7979 25.9375 37.5229 23.275 34.8604 20 34.8604ZM20 44.8604C17.7625 44.8604 15.9375 43.0354 15.9375 40.7979 15.9375 38.5604 17.7625 36.7354 20 36.7354 22.2375 36.7354 24.0625 38.5604 24.0625 40.7979 24.0625 43.0354 22.2375 44.8604 20 44.8604Z" class="MsftOfcThm_Background2_Fill_v2" stroke="none" stroke-width="1" stroke-linecap="butt" stroke-linejoin="miter" stroke-miterlimit="4" fill="#FFFFFF" fill-opacity="1"/><path d="M54.0625 40.7979C54.0625 44.0729 56.725 46.7354 60 46.7354 63.275 46.7354 65.9375 44.0729 65.9375 40.7979 65.9375 37.5229 63.275 34.8604 60 34.8604 56.725 34.8604 54.0625 37.5229 54.0625 40.7979ZM60 36.7354C62.2375 36.7354 64.0625 38.5604 64.0625 40.7979 64.0625 43.0354 62.2375 44.8604 60 44.8604 57.7625 44.8604 55.9375 43.0354 55.9375 40.7979 55.9375 38.5604 57.7625 36.7354 60 36.7354Z" class="MsftOfcThm_Background2_Fill_v2" stroke="none" stroke-width="1" stroke-linecap="butt" stroke-linejoin="miter" stroke-miterlimit="4" fill="#FFFFFF" fill-opacity="1"/><path d="M40 54.8604C36.725 54.8604 34.0625 57.5229 34.0625 60.7979 34.0625 64.0729 36.725 66.7354 40 66.7354 43.275 66.7354 45.9375 64.0729 45.9375 60.7979 45.9375 57.5229 43.275 54.8604 40 54.8604ZM40 64.8604C37.7625 64.8604 35.9375 63.0354 35.9375 60.7979 35.9375 58.5604 37.7625 56.7354 40 56.7354 42.2375 56.7354 44.0625 58.5604 44.0625 60.7979 44.0625 63.0354 42.2375 64.8604 40 64.8604Z" class="MsftOfcThm_Background2_Fill_v2" stroke="none" stroke-width="1" stroke-linecap="butt" stroke-linejoin="miter" stroke-miterlimit="4" fill="#FFFFFF" fill-opacity="1"/><path d="M40 14.8604C36.725 14.8604 34.0625 17.5229 34.0625 20.7979 34.0625 24.0729 36.725 26.7354 40 26.7354 43.275 26.7354 45.9375 24.0729 45.9375 20.7979 45.9375 17.5229 43.275 14.8604 40 14.8604ZM40 24.8604C37.7625 24.8604 35.9375 23.0354 35.9375 20.7979 35.9375 18.5604 37.7625 16.7354 40 16.7354 42.2375 16.7354 44.0625 18.5604 44.0625 20.7979 44.0625 23.0354 42.2375 24.8604 40 24.8604Z" class="MsftOfcThm_Background2_Fill_v2" stroke="none" stroke-width="1" stroke-linecap="butt" stroke-linejoin="miter" stroke-miterlimit="4" fill="#FFFFFF" fill-opacity="1"/><path d="M58.3377 59.1353C60.6502 56.8228 60.6502 53.0479 58.3377 50.7354 56.0252 48.4229 52.2502 48.4229 49.9377 50.7354 48.8127 51.8604 48.2002 53.3479 48.2002 54.9354 48.2002 56.5229 48.8127 58.0103 49.9377 59.1353 51.1002 60.2978 52.6127 60.8729 54.1377 60.8729 55.6627 60.8729 57.1752 60.2978 58.3377 59.1353ZM51.2752 57.8104C50.5127 57.0479 50.0877 56.0229 50.0877 54.9354 50.0877 53.8479 50.5127 52.8353 51.2752 52.0603 52.0627 51.2728 53.1127 50.8729 54.1502 50.8729 55.1877 50.8729 56.2252 51.2728 57.0252 52.0603 58.6127 53.6478 58.6127 56.2229 57.0252 57.8104 55.4377 59.3979 52.8627 59.3979 51.2752 57.8104Z" class="MsftOfcThm_Background2_Fill_v2" stroke="none" stroke-width="1" stroke-linecap="butt" stroke-linejoin="miter" stroke-miterlimit="4" fill="#FFFFFF" fill-opacity="1"/><path d="M31.7996 26.6604C31.7996 25.0729 31.1871 23.5854 30.0621 22.4604 27.7496 20.1479 23.9746 20.1479 21.6621 22.4604 19.3496 24.7729 19.3496 28.5479 21.6621 30.8604 22.8246 32.0229 24.3371 32.5979 25.8621 32.5979 27.3871 32.5979 28.8996 32.0229 30.0621 30.8604 31.1871 29.7354 31.7996 28.2479 31.7996 26.6604ZM28.7246 29.5229C27.1371 31.1104 24.5621 31.1104 22.9746 29.5229 21.3871 27.9354 21.3871 25.3604 22.9746 23.7729 23.7621 22.9854 24.8121 22.5854 25.8496 22.5854 26.8871 22.5854 27.9371 22.9854 28.7246 23.7729 29.4871 24.5354 29.9121 25.5604 29.9121 26.6479 29.9121 27.7354 29.4871 28.7479 28.7246 29.5229Z" class="MsftOfcThm_Background2_Fill_v2" stroke="none" stroke-width="1" stroke-linecap="butt" stroke-linejoin="miter" stroke-miterlimit="4" fill="#FFFFFF" fill-opacity="1"/><path d="M30.0504 59.1353C31.1754 58.0103 31.7879 56.5229 31.7879 54.9354 31.7879 53.3479 31.1754 51.8604 30.0504 50.7354 27.7379 48.4229 23.9629 48.4229 21.6504 50.7354 19.3379 53.0479 19.3379 56.8228 21.6504 59.1353 22.8129 60.2978 24.3254 60.8729 25.8504 60.8729 27.3754 60.8729 28.8879 60.2978 30.0504 59.1353ZM22.9879 52.0729C23.7754 51.2854 24.8254 50.8854 25.8629 50.8854 26.9004 50.8854 27.9504 51.2854 28.7379 52.0729 29.5004 52.8354 29.9254 53.8603 29.9254 54.9478 29.9254 56.0353 29.5004 57.0478 28.7379 57.8228 27.1504 59.4103 24.5754 59.4103 22.9879 57.8228 21.4004 56.2353 21.4004 53.6604 22.9879 52.0729Z" class="MsftOfcThm_Background2_Fill_v2" stroke="none" stroke-width="1" stroke-linecap="butt" stroke-linejoin="miter" stroke-miterlimit="4" fill="#FFFFFF" fill-opacity="1"/><path d="M49.9504 22.4604C48.8254 23.5854 48.2129 25.0729 48.2129 26.6604 48.2129 28.2479 48.8254 29.7354 49.9504 30.8604 51.1129 32.0229 52.6254 32.5979 54.1504 32.5979 55.6754 32.5979 57.1879 32.0229 58.3504 30.8604 60.6629 28.5479 60.6629 24.7729 58.3504 22.4604 56.0379 20.1479 52.2629 20.1479 49.9504 22.4604ZM57.0129 29.5229C55.4254 31.1104 52.8504 31.1104 51.2629 29.5229 50.5004 28.7604 50.0754 27.7354 50.0754 26.6479 50.0754 25.5604 50.5004 24.5479 51.2629 23.7729 52.0504 22.9854 53.1004 22.5854 54.1379 22.5854 55.1754 22.5854 56.2129 22.9854 57.0129 23.7729 58.6004 25.3604 58.6004 27.9354 57.0129 29.5229Z" class="MsftOfcThm_Background2_Fill_v2" stroke="none" stroke-width="1" stroke-linecap="butt" stroke-linejoin="miter" stroke-miterlimit="4" fill="#FFFFFF" fill-opacity="1"/><path d="M69.0625 38.2979 69.0625 43.2979C69.0625 47.9479 72.85 51.7354 77.5 51.7354L80 51.7354 80 49.8604 77.5 49.8604C73.8875 49.8604 70.9375 46.9229 70.9375 43.2979L70.9375 38.2979C70.9375 34.6729 73.8875 31.7354 77.5 31.7354L80 31.7354 80 29.8604 77.5 29.8604C72.85 29.8604 69.0625 33.6479 69.0625 38.2979Z" class="MsftOfcThm_Background2_Fill_v2" stroke="none" stroke-width="1" stroke-linecap="butt" stroke-linejoin="miter" stroke-miterlimit="4" fill="#FFFFFF" fill-opacity="1"/><path d="M10.9375 43.2979 10.9375 38.2979C10.9375 33.6479 7.15 29.8604 2.5 29.8604L0 29.8604 0 31.7354 2.5 31.7354C6.125 31.7354 9.0625 34.6729 9.0625 38.2979L9.0625 43.2979C9.0625 46.9229 6.125 49.8604 2.5 49.8604L0 49.8604 0 51.7354 2.5 51.7354C7.15 51.7354 10.9375 47.9479 10.9375 43.2979Z" class="MsftOfcThm_Background2_Fill_v2" stroke="none" stroke-width="1" stroke-linecap="butt" stroke-linejoin="miter" stroke-miterlimit="4" fill="#FFFFFF" fill-opacity="1"/><path d="M50.9375 80.7979 50.9375 78.2979C50.9375 73.6479 47.15 69.8604 42.5 69.8604L37.5 69.8604C32.85 69.8604 29.0625 73.6479 29.0625 78.2979L29.0625 80.7979 30.9375 80.7979 30.9375 78.2979C30.9375 74.6729 33.8875 71.7354 37.5 71.7354L42.5 71.7354C46.1125 71.7354 49.0625 74.6729 49.0625 78.2979L49.0625 80.7979 50.9375 80.7979Z" class="MsftOfcThm_Background2_Fill_v2" stroke="none" stroke-width="1" stroke-linecap="butt" stroke-linejoin="miter" stroke-miterlimit="4" fill="#FFFFFF" fill-opacity="1"/><path d="M50.9375 3.29785 50.9375 0.797852 49.0625 0.797852 49.0625 3.29785C49.0625 6.92285 46.1125 9.86035 42.5 9.86035L37.5 9.86035C33.8875 9.86035 30.9375 6.92285 30.9375 3.29785L30.9375 0.797852 29.0625 0.797852 29.0625 3.29785C29.0625 7.94785 32.85 11.7354 37.5 11.7354L42.5 11.7354C47.15 11.7354 50.9375 7.94785 50.9375 3.29785Z" class="MsftOfcThm_Background2_Fill_v2" stroke="none" stroke-width="1" stroke-linecap="butt" stroke-linejoin="miter" stroke-miterlimit="4" fill="#FFFFFF" fill-opacity="1"/><path d="M5.3123 18.9227 3.9873 20.2477 5.7498 22.0102C7.3998 23.6602 9.5498 24.4727 11.7123 24.4727 13.8748 24.4727 16.0373 23.6477 17.6748 22.0102L21.2123 18.4727C22.8123 16.8852 23.6873 14.7602 23.6873 12.5102 23.6873 10.2602 22.8123 8.13516 21.2123 6.54766L19.4498 4.78516 18.1248 6.11016 19.8873 7.87266C21.1248 9.11016 21.8123 10.7602 21.8123 12.5102 21.8123 14.2602 21.1248 15.9102 19.8873 17.1477L16.3498 20.6852C13.7873 23.2477 9.6248 23.2477 7.0748 20.6852L5.3123 18.9227Z" class="MsftOfcThm_Background2_Fill_v2" stroke="none" stroke-width="1" stroke-linecap="butt" stroke-linejoin="miter" stroke-miterlimit="4" fill="#FFFFFF" fill-opacity="1"/><path d="M63.6498 60.9103C66.2123 58.3478 70.3748 58.3478 72.9248 60.9103L74.6873 62.6728 76.0123 61.3478 74.2498 59.5853C70.9623 56.2978 65.5998 56.2978 62.3123 59.5853L58.7748 63.1228C57.1748 64.7103 56.2998 66.8353 56.2998 69.0853 56.2998 71.3353 57.1748 73.4603 58.7748 75.0478L60.5373 76.8103 61.8623 75.4853 60.0998 73.7228C58.8623 72.4853 58.1748 70.8353 58.1748 69.0853 58.1748 67.3353 58.8623 65.6853 60.0998 64.4478L63.6373 60.9103 63.6498 60.9103Z" class="MsftOfcThm_Background2_Fill_v2" stroke="none" stroke-width="1" stroke-linecap="butt" stroke-linejoin="miter" stroke-miterlimit="4" fill="#FFFFFF" fill-opacity="1"/><path d="M18.1246 75.4853 19.4496 76.8103 21.2121 75.0478C22.8121 73.4603 23.6871 71.3353 23.6871 69.0853 23.6871 66.8353 22.8121 64.7103 21.2121 63.1228L17.6746 59.5853C14.3871 56.2978 9.03711 56.2978 5.73711 59.5853L3.97461 61.3478 5.29961 62.6728 7.06211 60.9103C9.62461 58.3478 13.7871 58.3478 16.3371 60.9103L19.8746 64.4478C21.1121 65.6853 21.7996 67.3353 21.7996 69.0853 21.7996 70.8353 21.1121 72.4853 19.8746 73.7228L18.1121 75.4853 18.1246 75.4853Z" class="MsftOfcThm_Background2_Fill_v2" stroke="none" stroke-width="1" stroke-linecap="butt" stroke-linejoin="miter" stroke-miterlimit="4" fill="#FFFFFF" fill-opacity="1"/><path d="M76.0125 20.2477 74.6875 18.9227 72.925 20.6852C71.6875 21.9227 70.0375 22.6102 68.2875 22.6102 66.5375 22.6102 64.8875 21.9227 63.65 20.6852L60.1125 17.1477C58.875 15.9102 58.1875 14.2602 58.1875 12.5102 58.1875 10.7602 58.875 9.11016 60.1125 7.87266L61.875 6.11016 60.55 4.78516 58.7875 6.54766C57.1875 8.13516 56.3125 10.2602 56.3125 12.5102 56.3125 14.7602 57.1875 16.8852 58.7875 18.4727L62.325 22.0102C63.975 23.6602 66.125 24.4727 68.2875 24.4727 70.45 24.4727 72.6125 23.6477 74.25 22.0102L76.0125 20.2477Z" class="MsftOfcThm_Background2_Fill_v2" stroke="none" stroke-width="1" stroke-linecap="butt" stroke-linejoin="miter" stroke-miterlimit="4" fill="#FFFFFF" fill-opacity="1"/></g></svg>