<svg width="81" height="50" viewBox="0 0 81 50" xmlns="http://www.w3.org/2000/svg" xmlns:xlink="http://www.w3.org/1999/xlink" fill="none" overflow="hidden"><style>
.MsftOfcThm_Background2_Fill_v2 {
 fill:#B4B9C0; 
}
</style>
<defs><clipPath id="clip0_56_2699"><rect x="0" y="0" width="80" height="48.7805" fill="#FFFFFF" transform="translate(0.541992 0.561523)"/></clipPath></defs><g clip-path="url(#clip0_56_2699)"><path d="M19.7285 49.342 61.3546 49.342C61.8879 49.342 62.3302 48.8997 62.3302 48.3664L62.3302 1.53713C62.3302 1.0038 61.8879 0.561523 61.3546 0.561523L19.7285 0.561523C19.1952 0.561523 18.7529 1.0038 18.7529 1.53713L18.7529 48.3664C18.7529 48.8997 19.1952 49.342 19.7285 49.342ZM20.7041 2.51274 60.3789 2.51274 60.3789 16.1713 20.7041 16.1713 20.7041 2.51274ZM20.7041 18.1225 60.3789 18.1225 60.3789 31.781 20.7041 31.781 20.7041 18.1225ZM20.7041 33.7323 60.3789 33.7323 60.3789 47.3908 20.7041 47.3908 20.7041 33.7323Z" class="MsftOfcThm_Background2_Fill_v2" stroke="none" stroke-width="1" stroke-linecap="butt" stroke-linejoin="miter" stroke-miterlimit="4" fill="#FFFFFF" fill-opacity="1"/><path d="M56.1517 39.5859 40.542 39.5859 40.542 41.5372 56.1517 41.5372 56.1517 39.5859Z" class="MsftOfcThm_Background2_Fill_v2" stroke="none" stroke-width="1" stroke-linecap="butt" stroke-linejoin="miter" stroke-miterlimit="4" fill="#FFFFFF" fill-opacity="1"/><path d="M56.1517 23.9761 40.542 23.9761 40.542 25.9273 56.1517 25.9273 56.1517 23.9761Z" class="MsftOfcThm_Background2_Fill_v2" stroke="none" stroke-width="1" stroke-linecap="butt" stroke-linejoin="miter" stroke-miterlimit="4" fill="#FFFFFF" fill-opacity="1"/><path d="M56.1517 8.36621 40.542 8.36621 40.542 10.3174 56.1517 10.3174 56.1517 8.36621Z" class="MsftOfcThm_Background2_Fill_v2" stroke="none" stroke-width="1" stroke-linecap="butt" stroke-linejoin="miter" stroke-miterlimit="4" fill="#FFFFFF" fill-opacity="1"/><path d="M1.5176 44.1386 14.5257 44.1386 14.5257 42.1874 2.49321 42.1874 2.49321 7.71587 14.5257 7.71587 14.5257 5.76465 1.5176 5.76465C0.984269 5.76465 0.541992 6.20692 0.541992 6.74026L0.541992 43.163C0.541992 43.6964 0.984269 44.1386 1.5176 44.1386Z" class="MsftOfcThm_Background2_Fill_v2" stroke="none" stroke-width="1" stroke-linecap="butt" stroke-linejoin="miter" stroke-miterlimit="4" fill="#FFFFFF" fill-opacity="1"/><path d="M80.5423 43.163 80.5423 6.74026C80.5423 6.20692 80.1001 5.76465 79.5667 5.76465L66.5586 5.76465 66.5586 7.71587 78.5911 7.71587 78.5911 42.1874 66.5586 42.1874 66.5586 44.1386 79.5667 44.1386C80.1001 44.1386 80.5423 43.6964 80.5423 43.163Z" class="MsftOfcThm_Background2_Fill_v2" stroke="none" stroke-width="1" stroke-linecap="butt" stroke-linejoin="miter" stroke-miterlimit="4" fill="#FFFFFF" fill-opacity="1"/><path d="M24.9326 10.6426C25.6511 10.6426 26.2335 10.0602 26.2335 9.34183 26.2335 8.62341 25.6511 8.04102 24.9326 8.04102 24.2142 8.04102 23.6318 8.62341 23.6318 9.34183 23.6318 10.0602 24.2142 10.6426 24.9326 10.6426Z" class="MsftOfcThm_Background2_Fill_v2" stroke="none" stroke-width="1" stroke-linecap="butt" stroke-linejoin="miter" stroke-miterlimit="4" fill="#FFFFFF" fill-opacity="1"/><path d="M30.1358 10.6426C30.8542 10.6426 31.4366 10.0602 31.4366 9.34183 31.4366 8.62341 30.8542 8.04102 30.1358 8.04102 29.4174 8.04102 28.835 8.62341 28.835 9.34183 28.835 10.0602 29.4174 10.6426 30.1358 10.6426Z" class="MsftOfcThm_Background2_Fill_v2" stroke="none" stroke-width="1" stroke-linecap="butt" stroke-linejoin="miter" stroke-miterlimit="4" fill="#FFFFFF" fill-opacity="1"/><path d="M35.3389 10.6426C36.0573 10.6426 36.6397 10.0602 36.6397 9.34183 36.6397 8.62341 36.0573 8.04102 35.3389 8.04102 34.6205 8.04102 34.0381 8.62341 34.0381 9.34183 34.0381 10.0602 34.6205 10.6426 35.3389 10.6426Z" class="MsftOfcThm_Background2_Fill_v2" stroke="none" stroke-width="1" stroke-linecap="butt" stroke-linejoin="miter" stroke-miterlimit="4" fill="#FFFFFF" fill-opacity="1"/><path d="M24.9326 26.2525C25.6511 26.2525 26.2335 25.6701 26.2335 24.9517 26.2335 24.2333 25.6511 23.6509 24.9326 23.6509 24.2142 23.6509 23.6318 24.2333 23.6318 24.9517 23.6318 25.6701 24.2142 26.2525 24.9326 26.2525Z" class="MsftOfcThm_Background2_Fill_v2" stroke="none" stroke-width="1" stroke-linecap="butt" stroke-linejoin="miter" stroke-miterlimit="4" fill="#FFFFFF" fill-opacity="1"/><path d="M30.1358 26.2525C30.8542 26.2525 31.4366 25.6701 31.4366 24.9517 31.4366 24.2333 30.8542 23.6509 30.1358 23.6509 29.4174 23.6509 28.835 24.2333 28.835 24.9517 28.835 25.6701 29.4174 26.2525 30.1358 26.2525Z" class="MsftOfcThm_Background2_Fill_v2" stroke="none" stroke-width="1" stroke-linecap="butt" stroke-linejoin="miter" stroke-miterlimit="4" fill="#FFFFFF" fill-opacity="1"/><path d="M35.3389 26.2525C36.0573 26.2525 36.6397 25.6701 36.6397 24.9517 36.6397 24.2333 36.0573 23.6509 35.3389 23.6509 34.6205 23.6509 34.0381 24.2333 34.0381 24.9517 34.0381 25.6701 34.6205 26.2525 35.3389 26.2525Z" class="MsftOfcThm_Background2_Fill_v2" stroke="none" stroke-width="1" stroke-linecap="butt" stroke-linejoin="miter" stroke-miterlimit="4" fill="#FFFFFF" fill-opacity="1"/><path d="M24.9326 41.8624C25.6511 41.8624 26.2335 41.28 26.2335 40.5616 26.2335 39.8431 25.6511 39.2607 24.9326 39.2607 24.2142 39.2607 23.6318 39.8431 23.6318 40.5616 23.6318 41.28 24.2142 41.8624 24.9326 41.8624Z" class="MsftOfcThm_Background2_Fill_v2" stroke="none" stroke-width="1" stroke-linecap="butt" stroke-linejoin="miter" stroke-miterlimit="4" fill="#FFFFFF" fill-opacity="1"/><path d="M30.1358 41.8624C30.8542 41.8624 31.4366 41.28 31.4366 40.5616 31.4366 39.8431 30.8542 39.2607 30.1358 39.2607 29.4174 39.2607 28.835 39.8431 28.835 40.5616 28.835 41.28 29.4174 41.8624 30.1358 41.8624Z" class="MsftOfcThm_Background2_Fill_v2" stroke="none" stroke-width="1" stroke-linecap="butt" stroke-linejoin="miter" stroke-miterlimit="4" fill="#FFFFFF" fill-opacity="1"/><path d="M35.3389 41.8624C36.0573 41.8624 36.6397 41.28 36.6397 40.5616 36.6397 39.8431 36.0573 39.2607 35.3389 39.2607 34.6205 39.2607 34.0381 39.8431 34.0381 40.5616 34.0381 41.28 34.6205 41.8624 35.3389 41.8624Z" class="MsftOfcThm_Background2_Fill_v2" stroke="none" stroke-width="1" stroke-linecap="butt" stroke-linejoin="miter" stroke-miterlimit="4" fill="#FFFFFF" fill-opacity="1"/></g></svg>