<svg viewBox="0 0 77.9 76.06" xmlns="http://www.w3.org/2000/svg" xmlns:xlink="http://www.w3.org/1999/xlink" id="Layer_1" overflow="hidden"><style>
.MsftOfcThm_Background1_Fill_v2 {
 fill:#FFFFFF; 
}
</style>
<defs/><rect x="0.6" y="74.15" width="76.7" height="1.92" class="MsftOfcThm_Background1_Fill_v2" fill="#FFFFFF"/><path d="M38.88 68.39C25.94 68.39 13.04 65.81 0.24 60.65L0.96 58.87C26.08 69 51.64 69 76.95 58.87L77.66 60.65C64.77 65.81 51.82 68.39 38.89 68.39" class="MsftOfcThm_Background1_Fill_v2" fill="#FFFFFF"/><path d="M38.93 60.68C25.91 60.68 12.91 55.51 0 45.17L1.2 43.67C26.22 63.71 51.62 63.71 76.71 43.67L77.91 45.17C64.97 55.51 51.95 60.68 38.94 60.68" class="MsftOfcThm_Background1_Fill_v2" fill="#FFFFFF"/><rect x="37.99" y="0.96" width="1.92" height="46.02" class="MsftOfcThm_Background1_Fill_v2" fill="#FFFFFF"/><path d="M38.95 47.94C38.7 47.94 38.46 47.85 38.27 47.66L30.6 39.99 31.96 38.63 38.95 45.62 45.94 38.63 47.3 39.99 39.63 47.66C39.44 47.85 39.2 47.94 38.95 47.94" class="MsftOfcThm_Background1_Fill_v2" fill="#FFFFFF"/><path d="M45.94 9.31 38.95 2.32 31.96 9.31 30.61 7.95 38.27 0.28C38.64-0.1 39.25-0.1 39.63 0.28L47.3 7.95 45.94 9.31Z" class="MsftOfcThm_Background1_Fill_v2" fill="#FFFFFF"/></svg>