<?xml version="1.0" encoding="UTF-8"?>
<svg id="art" xmlns="http://www.w3.org/2000/svg" viewBox="0 0 80 80">
  <path d="M27.08,58.38c.02.06.05.12.09.18.03.05.08.1.12.15.1.09.2.16.33.21.12.06.25.08.38.08s.26-.02.38-.08c.13-.05.23-.12.33-.21.04-.05.09-.1.12-.15.04-.06.07-.12.09-.18.03-.06.05-.12.06-.18.02-.07.02-.14.02-.2s0-.13-.02-.19c0-.07-.03-.13-.06-.19-.05-.12-.12-.23-.21-.33-.1-.09-.2-.16-.33-.21-.24-.1-.52-.1-.76,0-.13.05-.23.12-.33.21-.04.05-.09.1-.12.16-.04.05-.07.11-.09.17-.03.06-.05.12-.06.19,0,.06-.02.13-.02.19s0,.13.02.2c0,.06.03.12.06.18Z"/>
  <path d="M31.29,58.71s.1.09.16.12c.05.04.11.07.17.09.06.03.12.05.19.06.06,0,.13.02.19.02.26,0,.52-.11.71-.29.09-.1.16-.21.21-.33.06-.12.08-.25.08-.38,0-.06,0-.13-.02-.19,0-.07-.03-.13-.06-.19-.02-.06-.05-.12-.09-.17-.03-.06-.08-.11-.12-.16-.1-.09-.2-.16-.33-.21-.18-.08-.38-.1-.57-.06-.07,0-.13.03-.19.06-.06.02-.12.05-.17.09-.06.04-.11.08-.16.12-.04.05-.08.1-.12.16-.04.05-.07.11-.09.17-.03.06-.05.12-.06.19,0,.06-.02.13-.02.19,0,.13.03.26.08.38.05.12.12.23.21.33Z"/>
  <path d="M35.62,58.92c.12.05.25.08.38.08.07,0,.13-.01.2-.02.06-.01.12-.03.18-.06.06-.02.12-.05.18-.09.05-.04.1-.08.15-.12.18-.19.29-.45.29-.71s-.11-.52-.29-.71c-.05-.04-.1-.08-.15-.12-.06-.04-.12-.07-.18-.09-.06-.03-.12-.05-.18-.06-.2-.04-.4-.02-.58.06-.12.05-.23.12-.33.21-.18.19-.29.45-.29.71s.11.52.29.71c.1.09.21.16.33.21Z"/>
  <rect x="40" y="57.25" width="12" height="1.5"/>
  <path d="M28.38,45.08c-.24-.1-.52-.1-.76,0-.13.05-.23.12-.33.21-.18.19-.29.45-.29.71,0,.13.03.26.08.38.05.12.12.23.21.33.1.09.21.16.33.21.12.06.25.08.38.08s.26-.02.38-.08c.12-.05.23-.12.33-.21.19-.19.29-.45.29-.71s-.1-.52-.29-.71c-.1-.09-.2-.16-.33-.21Z"/>
  <path d="M32.38,45.08c-.18-.08-.38-.1-.57-.06-.07,0-.13.03-.19.06-.06.02-.12.05-.17.09-.06.04-.11.08-.16.12-.18.19-.29.45-.29.71,0,.13.03.26.08.38.05.13.12.23.21.33.05.04.1.09.16.12.05.04.11.07.17.09.06.03.12.05.19.06.06,0,.13.02.19.02.13,0,.26-.03.38-.08.12-.05.23-.12.33-.21.09-.1.16-.21.21-.33.06-.12.08-.25.08-.38,0-.26-.11-.52-.29-.71-.1-.09-.2-.16-.33-.21Z"/>
  <path d="M36.56,45.17c-.06-.04-.12-.07-.18-.09-.06-.03-.12-.05-.18-.06-.2-.04-.4-.02-.58.06-.12.05-.23.12-.33.21-.18.19-.29.45-.29.71s.11.52.29.71c.1.09.21.16.33.21.12.05.25.08.38.08.07,0,.13-.01.2-.02.06-.01.12-.03.18-.06.06-.02.12-.05.18-.09.05-.03.1-.08.15-.12.18-.19.29-.45.29-.71s-.11-.52-.29-.71c-.05-.04-.1-.08-.15-.12Z"/>
  <rect x="40" y="45.25" width="12" height="1.5"/>
  <path d="M56,27.25H24c-.41,0-.75.34-.75.75v36c0,.41.34.75.75.75h32c.41,0,.75-.34.75-.75V28c0-.41-.34-.75-.75-.75ZM24.75,40.75h30.5v10.5h-30.5v-10.5ZM24.75,28.75h30.5v10.5h-30.5v-10.5ZM55.25,63.25h-30.5v-10.5h30.5v10.5Z"/>
  <path d="M28.38,33.08c-.24-.1-.52-.1-.76,0-.13.05-.23.12-.33.21-.09.1-.16.21-.21.33-.05.12-.08.25-.08.38s.03.26.08.38c.05.13.12.23.21.33.1.09.2.16.33.21.12.05.25.08.38.08s.26-.03.38-.08c.13-.05.23-.12.33-.21.19-.19.29-.45.29-.71s-.1-.52-.29-.71c-.1-.09-.2-.16-.33-.21Z"/>
  <path d="M32.71,33.29c-.1-.09-.21-.16-.33-.21-.18-.08-.38-.1-.57-.06-.07,0-.13.03-.19.06-.06.02-.12.05-.17.09-.06.04-.11.08-.16.12-.09.1-.16.21-.21.33-.05.12-.08.25-.08.38,0,.26.11.52.29.71.05.04.1.08.16.12.05.04.11.07.17.09.06.03.12.05.19.06.06,0,.13.02.19.02.13,0,.26-.03.38-.08.13-.05.23-.12.33-.21.18-.19.29-.45.29-.71,0-.13-.02-.26-.08-.38-.05-.12-.12-.23-.21-.33Z"/>
  <path d="M36.56,33.17c-.06-.04-.12-.07-.18-.09-.06-.03-.12-.05-.18-.06-.2-.04-.4-.02-.58.06-.12.05-.23.12-.33.21-.09.1-.16.21-.21.33-.06.12-.08.25-.08.38,0,.07,0,.13.02.2,0,.06.03.12.06.18.02.06.05.12.09.18.04.05.08.1.12.15.1.09.21.16.33.21.12.06.25.08.38.08.07,0,.13-.01.2-.02.06-.01.12-.03.18-.06.06-.02.12-.05.18-.09.05-.03.1-.08.15-.12.09-.09.16-.21.21-.33.03-.06.05-.12.06-.18.01-.07.02-.13.02-.2,0-.26-.11-.52-.29-.71-.05-.04-.1-.08-.15-.12Z"/>
  <rect x="40" y="33.25" width="12" height="1.5"/>
  <path d="M9.25,32v28c0,.41.34.75.75.75h10v-1.5h-9.25v-26.5h9.25v-1.5h-10c-.41,0-.75.34-.75.75Z"/>
  <path d="M70,31.25h-10v1.5h9.25v26.5h-9.25v1.5h10c.41,0,.75-.34.75-.75v-28c0-.41-.34-.75-.75-.75Z"/>
  <path d="M62,11.25c-1.79,0-3.25-1.46-3.25-3.25h-1.5c0,1.79-1.46,3.25-3.25,3.25v1.5c1.79,0,3.25,1.46,3.25,3.25h1.5c0-1.79,1.46-3.25,3.25-3.25v-1.5ZM58,13.46c-.38-.59-.87-1.09-1.46-1.46.59-.37,1.09-.87,1.46-1.46.38.59.87,1.09,1.46,1.46-.59.37-1.09.87-1.46,1.46Z"/>
  <path d="M66.79,12h-1.5c0,2.87-2.33,5.2-5.2,5.2v1.5c2.87,0,5.2,2.33,5.2,5.21h1.5c0-2.87,2.33-5.21,5.21-5.21v-1.5c-2.87,0-5.21-2.33-5.21-5.2ZM66.04,20.84c-.64-1.24-1.65-2.25-2.89-2.89,1.24-.64,2.25-1.65,2.89-2.89.64,1.24,1.65,2.25,2.89,2.89-1.24.64-2.25,1.65-2.89,2.89Z"/>
</svg>