<?xml version="1.0" encoding="UTF-8"?>
<svg id="art" xmlns="http://www.w3.org/2000/svg" viewBox="0 0 80 80">
  <path d="M62.85,53.03c.94-2.62,1.44-5.37,1.44-8.18s-.5-5.56-1.44-8.18c.85-.59,1.48-1.43,1.75-2.44.31-1.13.15-2.31-.43-3.32-.58-1.01-1.52-1.74-2.65-2.04-1.02-.28-2.07-.16-3.02.29-3.65-4.31-8.64-7.18-14.17-8.18-.18-2.24-2.04-4.02-4.32-4.03h-.01c-1.16,0-2.26.45-3.08,1.27-.75.74-1.17,1.71-1.25,2.76-5.53,1-10.51,3.88-14.17,8.18-.94-.45-1.98-.57-3-.3-1.13.3-2.07,1.02-2.66,2.03-.59,1.01-.74,2.19-.44,3.31.27,1.02.9,1.87,1.76,2.46-.94,2.62-1.44,5.37-1.44,8.18s.5,5.56,1.44,8.18c-.85.59-1.48,1.43-1.75,2.44-.31,1.13-.15,2.31.43,3.32.58,1.01,1.52,1.74,2.65,2.04h0c.38.1.76.15,1.15.15.65,0,1.28-.15,1.88-.44,3.65,4.3,8.63,7.18,14.16,8.17.18,2.24,2.04,4.02,4.32,4.03h.01c1.16,0,2.26-.45,3.08-1.27.75-.74,1.17-1.72,1.25-2.76,5.53-1,10.51-3.87,14.16-8.17.59.28,1.23.44,1.88.44.38,0,.75-.05,1.13-.15,1.13-.3,2.07-1.02,2.66-2.03.59-1.01.74-2.19.44-3.31-.27-1.02-.9-1.87-1.76-2.46ZM60.37,30.21c.25,0,.5.03.75.1.74.2,1.36.68,1.74,1.34s.48,1.44.28,2.18c-.2.74-.68,1.36-1.34,1.74-1.37.79-3.13.31-3.92-1.06-.79-1.37-.31-3.13,1.06-3.92.44-.25.93-.38,1.42-.38ZM37.97,19.28s0,0,0,0c.54-.54,1.26-.84,2.02-.84h0c1.58,0,2.87,1.29,2.86,2.88,0,1.58-1.29,2.86-2.87,2.86h0c-1.58,0-2.87-1.29-2.86-2.88,0-.77.3-1.49.84-2.03ZM17.14,31.64c.38-.66,1-1.14,1.75-1.33.25-.07.49-.1.74-.1.5,0,.99.13,1.44.39.66.38,1.14,1,1.33,1.75.2.74.09,1.51-.29,2.18s-1,1.14-1.75,1.33c-.74.2-1.51.09-2.18-.29-.66-.38-1.14-1-1.33-1.75h0c-.2-.74-.09-1.51.29-2.18ZM18.87,59.38h0c-.74-.2-1.36-.68-1.74-1.34s-.48-1.44-.28-2.18c.2-.74.68-1.36,1.34-1.74.44-.25.93-.38,1.42-.38.25,0,.5.03.75.1.74.2,1.36.68,1.74,1.34.79,1.37.31,3.13-1.06,3.92-.67.38-1.44.48-2.18.28ZM42.02,70.41c-.54.54-1.26.84-2.02.84h0c-1.58,0-2.87-1.29-2.86-2.88,0-1.58,1.29-2.86,2.87-2.86h0c1.58,0,2.87,1.29,2.86,2.88,0,.77-.3,1.49-.85,2.03ZM44.19,67.22c-.51-1.84-2.18-3.21-4.18-3.21h0c-2.01,0-3.68,1.37-4.2,3.21-5.1-.95-9.69-3.6-13.08-7.56,1.34-1.36,1.68-3.49.69-5.23-.58-1.01-1.52-1.74-2.65-2.04-.75-.2-1.51-.18-2.24,0-.85-2.42-1.31-4.96-1.31-7.55s.45-5.12,1.3-7.54c.36.09.73.14,1.1.14s.75-.05,1.13-.15c1.13-.3,2.07-1.02,2.66-2.03.59-1.01.74-2.19.44-3.31-.2-.74-.59-1.4-1.12-1.93,3.39-3.95,7.99-6.61,13.08-7.56.51,1.84,2.18,3.21,4.18,3.21h0c2.01,0,3.68-1.37,4.2-3.21,5.09.95,9.69,3.6,13.08,7.56-1.34,1.36-1.68,3.49-.69,5.23.81,1.41,2.28,2.19,3.8,2.19.37,0,.73-.05,1.1-.14.85,2.42,1.3,4.95,1.3,7.54s-.45,5.13-1.31,7.55c-.72-.19-1.48-.21-2.22-.01-1.13.3-2.07,1.02-2.66,2.03-1.01,1.74-.67,3.88.68,5.25-3.39,3.95-7.99,6.61-13.08,7.56ZM62.86,58.05c-.38.66-1,1.14-1.75,1.33-.74.2-1.51.09-2.18-.29-1.37-.79-1.84-2.55-1.04-3.92.38-.66,1-1.14,1.75-1.33.25-.07.49-.1.74-.1.5,0,.99.13,1.44.39.66.38,1.14,1,1.33,1.75h0c.2.74.09,1.51-.29,2.18Z"/>
  <path d="M34.15,33.86s-.09.09-.12.15c-.04.05-.07.11-.1.17-.02.06-.04.12-.05.19-.02.06-.02.13-.02.19,0,.07,0,.13.02.2,0,.06.03.12.05.18.03.06.06.12.1.18.03.05.08.1.12.15.19.19.44.29.71.29s.52-.1.7-.29c.19-.19.3-.44.3-.71s-.11-.52-.3-.7c-.36-.38-1.05-.37-1.41,0Z"/>
  <path d="M34.15,37.28s-.09.1-.12.16c-.04.05-.07.11-.1.17-.02.06-.04.12-.05.19-.02.06-.02.13-.02.19,0,.07,0,.13.02.2,0,.06.03.12.05.18.03.06.06.12.1.18.03.05.08.1.12.15.19.18.44.29.71.29s.52-.11.7-.29c.19-.19.3-.44.3-.71s-.11-.52-.3-.71c-.37-.37-1.04-.37-1.41,0Z"/>
  <path d="M34.15,40.71s-.09.1-.12.16c-.04.05-.07.11-.1.17-.02.06-.04.12-.05.19-.02.06-.02.13-.02.19,0,.07,0,.13.02.2,0,.06.03.12.05.18.03.06.06.12.1.18.03.05.08.1.12.15.18.18.44.29.71.29s.52-.11.7-.29c.19-.19.3-.44.3-.71s-.11-.52-.3-.71c-.37-.37-1.04-.37-1.41,0Z"/>
  <rect x="34.11" y="44.85" width="1.5" height="10.29"/>
  <path d="M50.29,30.38h-20.57c-.41,0-.75.34-.75.75v27.43c0,.41.34.75.75.75h20.57c.41,0,.75-.34.75-.75v-27.43c0-.41-.34-.75-.75-.75ZM30.46,31.88h8.79v25.93h-8.79v-25.93ZM49.54,57.81h-8.79v-25.93h8.79v25.93Z"/>
  <path d="M44.22,34.95c.02.06.05.11.09.17.04.05.08.1.13.15.09.09.2.16.32.21.12.06.25.08.38.08.27,0,.52-.1.71-.29.19-.19.3-.44.3-.71,0-.13-.03-.26-.08-.38-.05-.12-.13-.23-.22-.33-.28-.27-.72-.36-1.09-.21-.12.05-.23.12-.32.21-.1.1-.17.21-.22.33-.05.12-.08.25-.08.38,0,.07,0,.13.02.2.02.06.03.12.06.19Z"/>
  <path d="M44.44,38.7c.09.09.2.16.32.21.12.06.25.08.38.08.27,0,.52-.11.71-.29.09-.1.17-.2.22-.33.05-.12.08-.25.08-.38,0-.26-.11-.52-.3-.71-.28-.27-.72-.37-1.09-.21-.12.05-.23.12-.32.21-.05.05-.09.1-.13.16-.04.05-.07.11-.09.17-.03.06-.04.12-.06.19-.01.06-.02.13-.02.19,0,.13.03.26.08.38.05.13.12.23.22.33Z"/>
  <path d="M44.22,41.8c.02.06.05.12.09.18.04.05.08.1.13.15.09.09.2.16.32.21s.25.08.38.08c.07,0,.13-.01.2-.02.06-.01.13-.03.18-.06.13-.05.24-.12.33-.21.19-.19.3-.45.3-.71,0-.13-.03-.26-.08-.38-.05-.12-.13-.23-.22-.33-.28-.28-.72-.37-1.09-.21-.12.05-.23.12-.32.21-.1.1-.17.21-.22.33-.05.12-.08.25-.08.38,0,.06,0,.13.02.2.02.06.03.12.06.18Z"/>
  <rect x="44.39" y="44.85" width="1.5" height="10.29"/>
  <path d="M57.25,16h1.5c0-1.79,1.46-3.25,3.25-3.25v-1.5c-1.79,0-3.25-1.46-3.25-3.25h-1.5c0,1.79-1.46,3.25-3.25,3.25v1.5c1.79,0,3.25,1.46,3.25,3.25ZM58,10.54c.38.59.87,1.09,1.46,1.46-.59.37-1.09.87-1.46,1.46-.38-.59-.87-1.09-1.46-1.46.59-.37,1.09-.87,1.46-1.46Z"/>
  <path d="M66.79,12h-1.5c0,2.87-2.33,5.2-5.2,5.2v1.5c2.87,0,5.2,2.33,5.2,5.21h1.5c0-2.87,2.33-5.21,5.21-5.21v-1.5c-2.87,0-5.21-2.33-5.21-5.2ZM66.04,20.84c-.64-1.24-1.65-2.25-2.89-2.89,1.24-.64,2.25-1.65,2.89-2.89.64,1.24,1.65,2.25,2.89,2.89-1.24.64-2.25,1.65-2.89,2.89Z"/>
</svg>