<?xml version="1.0" encoding="UTF-8"?>
<svg id="art" xmlns="http://www.w3.org/2000/svg" viewBox="0 0 80 80">
  <path d="M8.75,24.75h5.54v-1.5h-6.29c-.41,0-.75.34-.75.75v6.29h1.5v-5.54Z"/>
  <path d="M60,23.25h-6.29v1.5h5.54v5.54h1.5v-6.29c0-.41-.34-.75-.75-.75Z"/>
  <path d="M59.25,67.25h-5.54v1.5h6.29c.41,0,.75-.34.75-.75v-6.29h-1.5v5.54Z"/>
  <path d="M8.75,61.71h-1.5v6.29c0,.41.34.75.75.75h6.29v-1.5h-5.54v-5.54Z"/>
  <path d="M12,57.25v1.5h44v-1.5h-2.39v-.27c0-5.36-3.86-9.73-8.61-9.73h-22c-4.75,0-8.61,4.36-8.61,9.73v.27h-2.39ZM15.89,56.98c0-4.54,3.19-8.23,7.11-8.23h22c3.92,0,7.11,3.69,7.11,8.23v.27H15.89v-.27Z"/>
  <path d="M34,45.18c4.57,0,8.29-3.72,8.29-8.29s-3.72-8.29-8.29-8.29-8.29,3.72-8.29,8.29,3.72,8.29,8.29,8.29ZM34,30.09c3.75,0,6.79,3.05,6.79,6.79s-3.05,6.79-6.79,6.79-6.79-3.05-6.79-6.79,3.05-6.79,6.79-6.79Z"/>
  <path d="M59.25,16h1.5c0-1.79,1.46-3.25,3.25-3.25v-1.5c-1.79,0-3.25-1.46-3.25-3.25h-1.5c0,1.79-1.46,3.25-3.25,3.25v1.5c1.79,0,3.25,1.46,3.25,3.25ZM60,10.54c.38.59.87,1.09,1.46,1.46-.59.38-1.09.87-1.46,1.46-.38-.59-.87-1.09-1.46-1.46.59-.38,1.09-.87,1.46-1.46Z"/>
  <path d="M66.97,12.44h-1.5c0,2.77-2.26,5.03-5.03,5.03v1.5c2.77,0,5.03,2.26,5.03,5.03h1.5c0-2.77,2.25-5.03,5.03-5.03v-1.5c-2.77,0-5.03-2.26-5.03-5.03ZM66.22,20.97c-.62-1.17-1.58-2.13-2.75-2.75,1.17-.62,2.13-1.58,2.75-2.75.62,1.17,1.58,2.13,2.75,2.75-1.17.62-2.13,1.58-2.75,2.75Z"/>
</svg>