<?xml version="1.0" encoding="UTF-8"?>
<svg id="art" xmlns="http://www.w3.org/2000/svg" viewBox="0 0 80 80">
  <path d="M40,36.75v-1.5c-1.79,0-3.25-1.46-3.25-3.25h-1.5c0,1.79-1.46,3.25-3.25,3.25v1.5c1.79,0,3.25,1.46,3.25,3.25h1.5c0-1.79,1.46-3.25,3.25-3.25ZM34.54,36c.59-.38,1.09-.87,1.46-1.46.38.59.87,1.09,1.46,1.46-.59.38-1.09.87-1.46,1.46-.38-.59-.87-1.09-1.46-1.46Z"/>
  <path d="M41.47,48h1.5c0-2.77,2.25-5.03,5.03-5.03v-1.5c-2.77,0-5.03-2.26-5.03-5.03h-1.5c0,2.77-2.26,5.03-5.03,5.03v1.5c2.77,0,5.03,2.25,5.03,5.03ZM42.22,39.47c.62,1.17,1.58,2.13,2.75,2.75-1.17.62-2.13,1.58-2.75,2.75-.62-1.17-1.58-2.13-2.75-2.75,1.17-.62,2.13-1.58,2.75-2.75Z"/>
  <path d="M45.13,18.86l-.59-1.38c-2.13.92-3.5,3-3.5,5.32h1.5c0-1.72,1.02-3.27,2.6-3.95Z"/>
  <path d="M25.72,26.75h0s29.14,0,29.14,0h0c2.41-.02,4.36-1.98,4.36-4.39,0-2.17-1.58-3.97-3.65-4.32,0-.12-.04-.23-.06-.34-.02-.14-.04-.28-.07-.42-.04-.16-.09-.32-.15-.47-.05-.13-.09-.26-.14-.39-.07-.15-.15-.29-.24-.43-.07-.12-.13-.24-.21-.35-.1-.14-.21-.26-.32-.38-.09-.1-.17-.2-.26-.3-.12-.12-.26-.22-.39-.32-.1-.08-.19-.17-.3-.24-.15-.1-.31-.17-.47-.26-.11-.05-.21-.12-.32-.17-.19-.08-.38-.13-.58-.18-.1-.03-.19-.07-.29-.09-.3-.06-.62-.09-.94-.09-.52,0-1.03.09-1.52.25-.12-.27-.26-.52-.42-.76-.05-.07-.1-.13-.15-.2-.14-.19-.29-.37-.45-.54-.06-.06-.12-.12-.18-.18-.2-.19-.41-.37-.64-.53-.03-.02-.05-.04-.08-.06-.26-.17-.53-.32-.81-.44-.07-.03-.15-.06-.22-.08-.22-.09-.45-.16-.69-.21-.09-.02-.18-.04-.27-.06-.31-.06-.63-.1-.96-.1-.26,0-.51.02-.77.06-.09.01-.18.04-.27.06-.16.03-.32.06-.48.11-.1.03-.19.07-.29.1-.15.05-.29.11-.44.17-.09.04-.17.09-.25.13-.09.05-.18.09-.27.14h0c-.09.07-.18.11-.27.17-.1-.13-.22-.25-.33-.37h0s-.07-.08-.11-.11c-.06-.06-.12-.11-.17-.17-.1-.09-.2-.18-.3-.27-.09-.08-.19-.15-.29-.23-.07-.05-.14-.1-.21-.15-.13-.09-.26-.17-.39-.25-.05-.03-.1-.05-.14-.08-.15-.08-.31-.16-.47-.23-.04-.02-.07-.03-.11-.05-.17-.07-.33-.13-.5-.19-.04-.01-.09-.02-.13-.04-.16-.05-.33-.1-.5-.13-.08-.02-.16-.03-.25-.04-.13-.02-.27-.05-.41-.06-.23-.02-.45-.04-.68-.04-.28,0-.56.02-.83.06-.07,0-.14.02-.21.03-.24.04-.47.09-.7.15-.04.01-.07.02-.11.03-.26.08-.51.18-.76.29-.05.02-.1.05-.15.07-.2.1-.4.2-.59.32-.05.03-.1.06-.14.09-.22.14-.43.3-.63.47-.04.04-.08.08-.12.11-.16.15-.32.3-.47.46-.04.05-.09.09-.13.14-.18.2-.34.42-.49.65-.01.02-.03.05-.04.07-.14.22-.27.45-.38.69,0,.02-.02.04-.03.06-.25-.04-.51-.06-.76-.06-2.91,0-5.27,2.35-5.29,5.25-1.91.49-3.27,2.2-3.27,4.23,0,2.41,1.95,4.37,4.36,4.38ZM24.87,19.64c.64,2.21,2.65,3.84,5.07,3.84.83,0,1.62-.19,2.36-.55l-.67-1.34c-.53.26-1.09.4-1.69.4-2.09,0-3.79-1.7-3.79-3.8s1.7-3.79,3.79-3.79c.09,0,.19.01.28.02-.08.4-.12.81-.12,1.23,0,.86.17,1.7.5,2.49l1.38-.58c-.25-.6-.38-1.24-.38-1.9,0-.61.13-1.19.33-1.73.05-.12.1-.24.15-.35.07-.16.16-.31.25-.45.06-.1.12-.19.18-.28.13-.18.27-.35.42-.51.04-.05.08-.1.13-.14.2-.2.42-.38.65-.54.07-.05.14-.08.21-.13.17-.11.35-.21.54-.29.09-.04.19-.08.28-.12.19-.07.38-.13.57-.18.09-.02.18-.05.28-.07.29-.05.59-.09.89-.09s.6.04.89.09c.07.01.14.02.2.04.28.06.55.15.81.26.05.02.1.05.15.07.23.1.44.23.65.37.05.03.11.07.16.1.23.16.44.35.63.55.26.27.5.57.7.9.12.2.32.33.55.36.23.03.46-.05.62-.21.35-.34.75-.6,1.19-.78.04-.02.08-.03.12-.04.17-.06.34-.11.51-.15.06-.01.12-.03.18-.04.21-.04.43-.06.65-.06.24,0,.48.03.71.07.08.01.15.04.22.06.15.04.3.08.45.14.08.03.16.07.23.1.13.06.26.13.39.21.07.04.14.09.21.14.12.09.24.19.35.29.06.05.12.1.17.15.12.12.23.26.33.4.03.05.08.09.11.14.12.18.22.38.31.58.04.1.07.21.11.32.13.38.21.78.21,1.2,0,1.17-.53,2.26-1.45,2.98l.93,1.18c1.28-1.01,2.02-2.53,2.02-4.16,0-.22-.04-.44-.07-.65.36-.14.74-.23,1.13-.23,1.79,0,3.25,1.46,3.25,3.25,0,.7-.22,1.36-.62,1.92l1.21.88c.36-.49.6-1.04.75-1.62,1.31.27,2.3,1.43,2.3,2.82,0,1.59-1.29,2.89-2.89,2.89h-29.09c-1.59,0-2.89-1.29-2.89-2.89,0-1.28.83-2.35,2-2.72Z"/>
  <path d="M36.11,22.57h1.5c0-2.3-1.87-4.17-4.17-4.17v1.5c1.47,0,2.67,1.2,2.67,2.67Z"/>
  <path d="M39.15,17.61v-1.5c-1.48,0-2.68-1.2-2.68-2.68h-1.5c0,2.3,1.88,4.18,4.18,4.18Z"/>
  <path d="M54.02,24.46v-1.5c-1.48,0-2.68-1.2-2.68-2.68h-1.5c0,2.3,1.88,4.18,4.18,4.18Z"/>
  <path d="M70.16,19.09h-6.16v1.5h6.16c.76,0,1.38.59,1.38,1.32v31.18H9.04v-31.18c0-.73.62-1.32,1.38-1.32h5.57v-1.5h-5.57c-1.59,0-2.88,1.27-2.88,2.82v36.74c0,1.55,1.29,2.82,2.88,2.82h29.32v5.79h-13.75v1.5h28v-1.5h-12.75v-5.79h28.91c1.59,0,2.88-1.27,2.88-2.82V21.91c0-1.56-1.29-2.82-2.88-2.82ZM70.16,59.96H10.43c-.76,0-1.38-.59-1.38-1.32v-4.06h62.5v4.06c0,.73-.62,1.32-1.38,1.32Z"/>
</svg>