<?xml version="1.0" encoding="UTF-8"?>
<svg id="art" xmlns="http://www.w3.org/2000/svg" viewBox="0 0 80 80">
  <defs>
    <style>
      .cls-1 {
        fill: none;
      }

      .cls-2 {
        fill: #fff;
      }
    </style>
  </defs>
  <path class="cls-1" d="M54,34.9c2.62,0,4.75,2.13,4.75,4.75s-2.13,4.75-4.75,4.75c-2.36,0-4.31-1.74-4.67-4h-4.56c.09,2.45,1.07,4.73,2.81,6.47,3.76,3.76,9.89,3.76,13.65,0,1.82-1.82,2.83-4.25,2.83-6.82s-1-5-2.83-6.82c-1.88-1.88-4.35-2.82-6.82-2.82s-4.94.94-6.82,2.82c-1.55,1.55-2.5,3.53-2.75,5.67h4.5c.36-2.26,2.31-4,4.67-4Z"/>
  <path class="cls-1" d="M60,13.46c.38-.59.87-1.09,1.46-1.46-.59-.38-1.09-.87-1.46-1.46-.38.59-.87,1.09-1.46,1.46.59.38,1.09.87,1.46,1.46Z"/>
  <path class="cls-1" d="M66.22,15.47c-.62,1.17-1.58,2.13-2.75,2.75,1.17.62,2.13,1.58,2.75,2.75.62-1.17,1.58-2.13,2.75-2.75-1.17-.62-2.13-1.58-2.75-2.75Z"/>
  <path d="M59.25,16h1.5c0-1.79,1.46-3.25,3.25-3.25v-1.5c-1.79,0-3.25-1.46-3.25-3.25h-1.5c0,1.79-1.46,3.25-3.25,3.25v1.5c1.79,0,3.25,1.46,3.25,3.25ZM60,10.54c.38.59.87,1.09,1.46,1.46-.59.38-1.09.87-1.46,1.46-.38-.59-.87-1.09-1.46-1.46.59-.38,1.09-.87,1.46-1.46Z"/>
  <path d="M66.97,12.44h-1.5c0,2.77-2.26,5.03-5.03,5.03v1.5c2.77,0,5.03,2.26,5.03,5.03h1.5c0-2.77,2.25-5.03,5.03-5.03v-1.5c-2.77,0-5.03-2.26-5.03-5.03ZM66.22,20.97c-.62-1.17-1.58-2.13-2.75-2.75,1.17-.62,2.13-1.58,2.75-2.75.62,1.17,1.58,2.13,2.75,2.75-1.17.62-2.13,1.58-2.75,2.75Z"/>
  <path d="M10.75,7.65h-1.5v62c0,.41.34.75.75.75h62v-1.5H10.75V7.65Z"/>
  <circle class="cls-2" cx="16" cy="61.65" r="1.25"/>
  <path d="M16,64.4c1.52,0,2.75-1.23,2.75-2.75,0-.84-.38-1.58-.98-2.09l7.82-17.21c.13.02.27.04.41.04.08,0,.15-.02.22-.02l4.15,11.07c-.68.5-1.12,1.3-1.12,2.2,0,1.52,1.23,2.75,2.75,2.75s2.75-1.23,2.75-2.75c0-.8-.35-1.52-.9-2.02l6.61-13.23h2.81c.09,2.74,1.16,5.45,3.24,7.53,2.11,2.11,4.91,3.27,7.88,3.27,2.73,0,5.3-.98,7.33-2.76l7.74,7.74,1.06-1.06-7.74-7.74c3.83-4.37,3.67-11.04-.5-15.21-4.35-4.35-11.42-4.35-15.77,0-1.88,1.88-2.95,4.27-3.2,6.73h-3.32c-.28,0-.54.16-.67.41l-6.82,13.64c-.17-.03-.34-.05-.51-.05-.08,0-.15.02-.22.02l-4.15-11.07c.68-.5,1.12-1.3,1.12-2.2,0-1.52-1.23-2.75-2.75-2.75s-2.75,1.23-2.75,2.75c0,.84.38,1.58.98,2.09l-7.82,17.21c-.13-.02-.27-.04-.41-.04-1.52,0-2.75,1.23-2.75,2.75s1.23,2.75,2.75,2.75ZM47.58,33.22c1.88-1.88,4.35-2.82,6.82-2.82s4.94.94,6.82,2.82c1.82,1.82,2.83,4.25,2.83,6.82s-1,5-2.83,6.82c-3.76,3.76-9.88,3.76-13.65,0-1.74-1.74-2.72-4.03-2.81-6.47h4.56c.36,2.26,2.31,4,4.67,4,2.62,0,4.75-2.13,4.75-4.75s-2.13-4.75-4.75-4.75c-2.36,0-4.31,1.74-4.67,4h-4.5c.25-2.14,1.2-4.13,2.75-5.67ZM50.75,39.65c0-1.79,1.46-3.25,3.25-3.25s3.25,1.46,3.25,3.25-1.46,3.25-3.25,3.25-3.25-1.46-3.25-3.25ZM33.25,55.65c0,.69-.56,1.25-1.25,1.25s-1.25-.56-1.25-1.25.56-1.25,1.25-1.25,1.25.56,1.25,1.25ZM24.75,39.65c0-.69.56-1.25,1.25-1.25s1.25.56,1.25,1.25-.56,1.25-1.25,1.25-1.25-.56-1.25-1.25ZM16,60.4c.69,0,1.25.56,1.25,1.25s-.56,1.25-1.25,1.25-1.25-.56-1.25-1.25.56-1.25,1.25-1.25Z"/>
  <circle class="cls-2" cx="26" cy="39.65" r="1.25"/>
</svg>