<?xml version="1.0" encoding="UTF-8"?>
<svg id="art" xmlns="http://www.w3.org/2000/svg" viewBox="0 0 80 80">
  <path d="M59.25,16h1.5c0-1.79,1.46-3.25,3.25-3.25v-1.5c-1.79,0-3.25-1.46-3.25-3.25h-1.5c0,1.79-1.46,3.25-3.25,3.25v1.5c1.79,0,3.25,1.46,3.25,3.25ZM60,10.54c.38.59.87,1.09,1.46,1.46-.59.38-1.09.87-1.46,1.46-.38-.59-.87-1.09-1.46-1.46.59-.38,1.09-.87,1.46-1.46Z"/>
  <path d="M66.97,12.44h-1.5c0,2.77-2.26,5.03-5.03,5.03v1.5c2.77,0,5.03,2.26,5.03,5.03h1.5c0-2.77,2.25-5.03,5.03-5.03v-1.5c-2.77,0-5.03-2.26-5.03-5.03ZM66.22,20.97c-.62-1.17-1.58-2.13-2.75-2.75,1.17-.62,2.13-1.58,2.75-2.75.62,1.17,1.58,2.13,2.75,2.75-1.17.62-2.13,1.58-2.75,2.75Z"/>
  <path d="M45.06,40c0-2.79-2.27-5.06-5.06-5.06s-5.06,2.27-5.06,5.06,2.27,5.06,5.06,5.06,5.06-2.27,5.06-5.06ZM40,43.56c-1.96,0-3.56-1.6-3.56-3.56s1.6-3.56,3.56-3.56,3.56,1.6,3.56,3.56-1.6,3.56-3.56,3.56Z"/>
  <path d="M43.75,51.75c-.11-1.12.45-2.22,1.43-2.78.98-.56,2.2-.5,3.12.15.68.48,1.58.39,2.09-.22,1.09-1.27,1.93-2.72,2.5-4.31.28-.78-.08-1.62-.84-1.97-1.03-.47-1.69-1.5-1.69-2.63s.66-2.16,1.69-2.63c.75-.34,1.12-1.19.84-1.96-.28-.8-.63-1.56-1.03-2.26-.4-.7-.89-1.38-1.44-2.02h0c-.54-.62-1.45-.73-2.12-.25-.92.65-2.15.71-3.12.15-.98-.56-1.54-1.65-1.43-2.78.08-.83-.48-1.57-1.29-1.71-1.65-.3-3.33-.3-4.98,0-.78.15-1.31.88-1.23,1.71.11,1.12-.45,2.22-1.43,2.78s-2.2.5-3.12-.15c-.67-.48-1.58-.39-2.09.22-1.09,1.27-1.93,2.72-2.5,4.31-.28.78.08,1.62.84,1.97,1.03.47,1.69,1.5,1.69,2.63s-.66,2.16-1.69,2.63c-.75.34-1.12,1.19-.84,1.96.28.8.63,1.56,1.03,2.26.4.7.89,1.38,1.44,2.02.54.62,1.45.73,2.12.25.92-.66,2.14-.71,3.12-.15.98.56,1.54,1.65,1.43,2.78-.08.83.48,1.57,1.29,1.71.82.15,1.64.22,2.46.22s1.68-.08,2.52-.23c.78-.15,1.31-.88,1.23-1.71ZM37.81,51.99c-.06-.01-.06-.07-.06-.1.16-1.71-.69-3.37-2.17-4.22-.68-.39-1.43-.58-2.19-.58-.9,0-1.79.27-2.55.81-.02.01-.07.04-.11,0-.49-.57-.92-1.18-1.28-1.8-.36-.62-.67-1.29-.92-2.01-.02-.06.03-.09.05-.1,1.56-.71,2.57-2.28,2.57-3.99s-1.01-3.28-2.57-3.99c-.02,0-.08-.04-.05-.1.5-1.41,1.25-2.7,2.31-3.81,1.4,1,3.26,1.09,4.74.23,1.48-.86,2.33-2.51,2.19-4.31,1.47-.27,2.96-.28,4.44,0,.06.01.06.07.06.1-.16,1.71.69,3.37,2.17,4.22,1.48.85,3.34.76,4.74-.23.02-.01.07-.04.11,0,.49.57.92,1.18,1.28,1.8.36.62.67,1.29.92,2.01.02.06-.03.09-.05.1-1.56.71-2.57,2.28-2.57,3.99s1.01,3.28,2.57,3.99c.02,0,.08.04.05.1-.5,1.41-1.25,2.7-2.31,3.81-1.4-1-3.26-1.09-4.74-.23-1.48.86-2.33,2.51-2.19,4.31-1.47.28-2.96.28-4.44,0Z"/>
  <path d="M35.76,16.03l-1.81,1.81,1.06,1.06,3.18-3.18c.14-.14.22-.33.22-.53s-.08-.39-.22-.53l-3.18-3.18-1.06,1.06,1.97,1.97c-11.89.89-21.29,10.84-21.29,22.95h1.5c0-11.22,8.64-20.46,19.62-21.43Z"/>
  <path d="M65.5,35.72c-.89-11.89-10.84-21.28-22.95-21.28v1.5c11.22,0,20.46,8.64,21.43,19.62l-1.8-1.8-1.06,1.06,3.18,3.18c.15.15.34.22.53.22s.38-.07.53-.22l3.18-3.18-1.06-1.06-1.97,1.97Z"/>
  <path d="M44.24,63.97l1.81-1.81-1.06-1.06-3.18,3.18c-.14.14-.22.33-.22.53s.08.39.22.53l3.18,3.18,1.06-1.06-1.97-1.97c11.89-.89,21.29-10.84,21.29-22.95h-1.5c0,11.22-8.64,20.46-19.62,21.43Z"/>
  <path d="M16.03,44.45l1.8,1.8,1.06-1.06-3.18-3.18c-.29-.29-.77-.29-1.06,0l-3.18,3.18,1.06,1.06,1.97-1.97c.89,11.89,10.84,21.28,22.95,21.28v-1.5c-11.22,0-20.46-8.64-21.43-19.62Z"/>
</svg>