<?xml version="1.0" encoding="UTF-8"?>
<svg id="art" xmlns="http://www.w3.org/2000/svg" viewBox="0 0 80 80">
  <path d="M8.75,24.75h5.54v-1.5h-6.29c-.41,0-.75.34-.75.75v6.29h1.5v-5.54Z"/>
  <path d="M60,23.25h-6.29v1.5h5.54v5.54h1.5v-6.29c0-.41-.34-.75-.75-.75Z"/>
  <path d="M58.94,67.25h-5.54v1.5h6.29c.41,0,.75-.34.75-.75v-6.29h-1.5v5.54Z"/>
  <path d="M8.75,61.71h-1.5v6.29c0,.41.34.75.75.75h6.29v-1.5h-5.54v-5.54Z"/>
  <path d="M56,57.25h-3.25v-25.25c0-.41-.34-.75-.75-.75H16c-.41,0-.75.34-.75.75v25.25h-3.25v1.5h44v-1.5ZM51.25,32.75v21.46l-14.52-14.25c-.3-.29-.77-.29-1.06,0l-5.5,5.5-1.67-1.67c-.29-.29-.76-.29-1.05,0l-10.7,10.35v-21.38h34.5ZM16.75,56.22l11.21-10.84,11.87,11.87h-23.09v-1.03ZM41.96,57.25l-10.72-10.72,4.97-4.97,15.04,14.76v.94h-9.29Z"/>
  <path d="M59.25,16h1.5c0-1.79,1.46-3.25,3.25-3.25v-1.5c-1.79,0-3.25-1.46-3.25-3.25h-1.5c0,1.79-1.46,3.25-3.25,3.25v1.5c1.79,0,3.25,1.46,3.25,3.25ZM60,10.54c.38.59.87,1.09,1.46,1.46-.59.38-1.09.87-1.46,1.46-.38-.59-.87-1.09-1.46-1.46.59-.38,1.09-.87,1.46-1.46Z"/>
  <path d="M66.97,12.44h-1.5c0,2.77-2.26,5.03-5.03,5.03v1.5c2.77,0,5.03,2.26,5.03,5.03h1.5c0-2.77,2.25-5.03,5.03-5.03v-1.5c-2.77,0-5.03-2.26-5.03-5.03ZM66.22,20.97c-.62-1.17-1.58-2.13-2.75-2.75,1.17-.62,2.13-1.58,2.75-2.75.62,1.17,1.58,2.13,2.75,2.75-1.17.62-2.13,1.58-2.75,2.75Z"/>
  <path d="M29.8,40.74c1.63,0,2.95-1.32,2.95-2.95s-1.32-2.95-2.95-2.95-2.95,1.32-2.95,2.95,1.32,2.95,2.95,2.95ZM29.8,36.34c.8,0,1.45.65,1.45,1.45s-.65,1.45-1.45,1.45-1.45-.65-1.45-1.45.65-1.45,1.45-1.45Z"/>
</svg>