<?xml version="1.0" encoding="UTF-8"?>
<svg id="art" xmlns="http://www.w3.org/2000/svg" viewBox="0 0 80 80">
  <path d="M68.39,39.61l-3.86-3.86-1.06,1.06,2.45,2.45h-25.92v1.5h26.19l-2.72,2.72,1.06,1.06,3.86-3.86c.29-.29.29-.77,0-1.06Z"/>
  <path d="M43.61,27.2l1.06,1.06,3.86-3.86c.29-.29.29-.77,0-1.06l-3.86-3.86-1.06,1.06,2.45,2.45h-6.05v1.5h6.33l-2.72,2.72Z"/>
  <path d="M52.67,51.74l-1.06,1.06,2.45,2.45h-14.05v1.5h14.33l-2.72,2.72,1.06,1.06,3.86-3.86c.29-.29.29-.77,0-1.06l-3.86-3.86Z"/>
  <path d="M18,48.75h15.5c.41,0,.75-.34.75-.75v-15.5c0-.41-.34-.75-.75-.75h-15.5c-.41,0-.75.34-.75.75v15.5c0,.41.34.75.75.75ZM18.75,33.25h14v14h-14v-14Z"/>
  <path d="M18.06,28.75h15.38c.26,0,.5-.13.64-.36.14-.22.15-.5.03-.73l-7.69-15.38c-.25-.51-1.09-.51-1.34,0l-7.69,15.38c-.12.23-.1.51.03.73.14.22.38.36.64.36ZM25.75,14.29l6.48,12.96h-12.96l6.48-12.96Z"/>
  <path d="M26.03,51.25c-4.83,0-8.75,3.92-8.75,8.75s3.92,8.75,8.75,8.75,8.75-3.92,8.75-8.75-3.92-8.75-8.75-8.75ZM26.03,67.25c-4,0-7.25-3.25-7.25-7.25s3.25-7.25,7.25-7.25,7.25,3.25,7.25,7.25-3.25,7.25-7.25,7.25Z"/>
  <path d="M56.75,19h1.5c0-1.52,1.23-2.75,2.75-2.75v-1.5c-1.52,0-2.75-1.23-2.75-2.75h-1.5c0,1.52-1.23,2.75-2.75,2.75v1.5c1.52,0,2.75,1.23,2.75,2.75ZM57.5,14.4c.3.43.67.8,1.1,1.1-.43.3-.8.67-1.1,1.1-.3-.43-.67-.8-1.1-1.1.43-.3.8-.67,1.1-1.1Z"/>
  <path d="M57.89,20.19v1.5c2.37,0,4.31,1.93,4.31,4.31h1.5c0-2.37,1.93-4.31,4.31-4.31v-1.5c-2.37,0-4.31-1.93-4.31-4.31h-1.5c0,2.37-1.93,4.31-4.31,4.31ZM62.94,18.73c.52.92,1.29,1.69,2.21,2.21-.92.52-1.69,1.29-2.21,2.21-.52-.92-1.29-1.69-2.21-2.21.92-.52,1.69-1.29,2.21-2.21Z"/>
</svg>