<?xml version="1.0" encoding="UTF-8"?>
<svg id="art" xmlns="http://www.w3.org/2000/svg" viewBox="0 0 80 80">
  <defs>
    <style>
      .cls-1 {
        fill: none;
      }

      .cls-2 {
        fill: #fff;
      }
    </style>
  </defs>
  <polygon class="cls-1" points="28.32 40.92 26.96 37.09 25.61 40.92 28.32 40.92"/>
  <path class="cls-1" d="M60,13.46c.38-.59.87-1.09,1.46-1.46-.59-.38-1.09-.87-1.46-1.46-.38.59-.87,1.09-1.46,1.46.59.38,1.09.87,1.46,1.46Z"/>
  <path class="cls-1" d="M66.22,15.47c-.62,1.17-1.58,2.13-2.75,2.75,1.17.62,2.13,1.58,2.75,2.75.62-1.17,1.58-2.13,2.75-2.75-1.17-.62-2.13-1.58-2.75-2.75Z"/>
  <path d="M59.25,16h1.5c0-1.79,1.46-3.25,3.25-3.25v-1.5c-1.79,0-3.25-1.46-3.25-3.25h-1.5c0,1.79-1.46,3.25-3.25,3.25v1.5c1.79,0,3.25,1.46,3.25,3.25ZM60,10.54c.38.59.87,1.09,1.46,1.46-.59.38-1.09.87-1.46,1.46-.38-.59-.87-1.09-1.46-1.46.59-.38,1.09-.87,1.46-1.46Z"/>
  <path d="M66.97,12.44h-1.5c0,2.77-2.26,5.03-5.03,5.03v1.5c2.77,0,5.03,2.26,5.03,5.03h1.5c0-2.77,2.25-5.03,5.03-5.03v-1.5c-2.77,0-5.03-2.26-5.03-5.03ZM66.22,20.97c-.62-1.17-1.58-2.13-2.75-2.75,1.17-.62,2.13-1.58,2.75-2.75.62,1.17,1.58,2.13,2.75,2.75-1.17.62-2.13,1.58-2.75,2.75Z"/>
  <rect x="17.93" y="25.45" width="1.5" height="3.45"/>
  <rect x="22.07" y="23.73" width="1.5" height="6.91"/>
  <rect x="26.21" y="22" width="1.5" height="10.36"/>
  <rect x="30.36" y="23.73" width="1.5" height="6.91"/>
  <rect x="34.5" y="25.45" width="1.5" height="3.45"/>
  <path d="M23.82,45.99l1.26-3.58h3.77l1.26,3.58,1.41-.5-3.81-10.78h-1.51l-3.81,10.78,1.41.5ZM26.96,37.09l1.35,3.83h-2.71l1.35-3.83Z"/>
  <path class="cls-2" d="M55.68,50.51h-1.37c-.2,2.19-1.17,4.16-2.65,5.63,1.17.73,2.54,1.16,4.01,1.16v1.5c-1.94,0-3.74-.61-5.22-1.65-1.48,1.04-3.28,1.65-5.22,1.65v-1.5c1.47,0,2.85-.43,4.01-1.16-1.48-1.47-2.45-3.44-2.65-5.63h-1.37v-1.5h4.47v-2.98h1.5v2.98h4.47v1.5Z"/>
  <path class="cls-2" d="M50.46,55.22c1.28-1.21,2.15-2.86,2.35-4.7h-4.7c.2,1.85,1.07,3.49,2.35,4.7Z"/>
  <path d="M62.89,43.01h-17.36v-12.2c0-2.31-1.8-4.18-4.06-4.34v-.03h-3.63v1.5h3.31c1.59,0,2.88,1.29,2.88,2.88v12.2h-6.01c-2.13,0-3.86,1.73-3.86,3.86v1.32h-3.89c-.2,0-.39.08-.53.22l-5.97,5.97v-5.44c0-.41-.34-.75-.75-.75h-10.88c-1.59,0-2.88-1.29-2.88-2.88v-14.5c0-1.59,1.29-2.88,2.88-2.88h3.63v-1.5h-3.63c-2.41,0-4.38,1.96-4.38,4.38v14.5c0,2.41,1.96,4.38,4.38,4.38h10.13v6.5c0,.3.18.58.46.69.09.04.19.06.29.06.2,0,.39-.08.53-.22l7.03-7.03h3.58v9.61c0,2.13,1.73,3.86,3.86,3.86h9.01l6,6c.14.14.33.22.53.22.1,0,.19-.02.29-.06.28-.12.46-.39.46-.69v-5.47h8.57c2.13,0,3.86-1.73,3.86-3.86v-12.43c0-2.13-1.73-3.86-3.86-3.86ZM65.25,59.3c0,1.3-1.06,2.36-2.36,2.36h-9.32c-.41,0-.75.34-.75.75v4.41l-4.94-4.94c-.14-.14-.33-.22-.53-.22h-9.33c-1.3,0-2.36-1.06-2.36-2.36v-12.43c0-1.3,1.06-2.36,2.36-2.36h24.87c1.3,0,2.36,1.06,2.36,2.36v12.43Z"/>
  <path d="M51.21,46.04h-1.5v2.98h-4.47v1.5h1.37c.2,2.19,1.17,4.16,2.65,5.63-1.17.73-2.54,1.16-4.01,1.16v1.5c1.94,0,3.74-.61,5.22-1.65,1.48,1.04,3.28,1.65,5.22,1.65v-1.5c-1.47,0-2.85-.43-4.01-1.16,1.48-1.47,2.45-3.44,2.65-5.63h1.37v-1.5h-4.47v-2.98ZM50.46,55.22c-1.28-1.21-2.15-2.86-2.35-4.7h4.7c-.2,1.85-1.07,3.49-2.35,4.7Z"/>
</svg>