<?xml version="1.0" encoding="UTF-8"?>
<svg id="art" xmlns="http://www.w3.org/2000/svg" viewBox="0 0 80 80">
  <path d="M59.25,16h1.5c0-1.79,1.46-3.25,3.25-3.25v-1.5c-1.79,0-3.25-1.46-3.25-3.25h-1.5c0,1.79-1.46,3.25-3.25,3.25v1.5c1.79,0,3.25,1.46,3.25,3.25ZM60,10.54c.38.59.87,1.09,1.46,1.46-.59.38-1.09.87-1.46,1.46-.38-.59-.87-1.09-1.46-1.46.59-.38,1.09-.87,1.46-1.46Z"/>
  <path d="M60.44,17.47v1.5c2.77,0,5.03,2.25,5.03,5.03h1.5c0-2.77,2.25-5.03,5.03-5.03v-1.5c-2.77,0-5.03-2.26-5.03-5.03h-1.5c0,2.77-2.26,5.03-5.03,5.03ZM66.22,15.47c.62,1.17,1.58,2.13,2.75,2.75-1.17.62-2.13,1.58-2.75,2.75-.62-1.17-1.58-2.13-2.75-2.75,1.17-.62,2.13-1.58,2.75-2.75Z"/>
  <path d="M24.72,29.02L7.72,46.02c-.29.29-.29.77,0,1.06l17,17,1.06-1.06-16.47-16.47,16.47-16.47-1.06-1.06Z"/>
  <rect x="21.12" y="45.8" width="38.01" height="1.5" transform="translate(-19.45 61.66) rotate(-63.47)"/>
  <path d="M72.53,46.02l-17-17-1.06,1.06,16.47,16.47-16.47,16.47,1.06,1.06,17-17c.29-.29.29-.77,0-1.06Z"/>
</svg>