<?xml version="1.0" encoding="UTF-8"?>
<svg id="art" xmlns="http://www.w3.org/2000/svg" viewBox="0 0 80 80">
  <defs>
    <style>
      .cls-1 {
        fill: none;
      }
    </style>
  </defs>
  <circle class="cls-1" cx="13.14" cy="22.97" r="1.25"/>
  <path class="cls-1" d="M66.22,20.97c.62-1.17,1.58-2.13,2.75-2.75-1.17-.62-2.13-1.58-2.75-2.75-.62,1.17-1.58,2.13-2.75,2.75,1.17.62,2.13,1.58,2.75,2.75Z"/>
  <path class="cls-1" d="M60,13.46c.38-.59.87-1.09,1.46-1.46-.59-.38-1.09-.87-1.46-1.46-.38.59-.87,1.09-1.46,1.46.59.38,1.09.87,1.46,1.46Z"/>
  <path class="cls-1" d="M13.14,18.75c-2.42,0-4.39,1.97-4.39,4.39,0,1.18.46,2.28,1.29,3.11l3.1,3.11,3.1-3.11s0,0,0,0c.83-.83,1.29-1.94,1.29-3.11,0-2.42-1.97-4.39-4.39-4.39ZM13.14,25.72c-1.52,0-2.75-1.23-2.75-2.75s1.23-2.75,2.75-2.75,2.75,1.23,2.75,2.75-1.23,2.75-2.75,2.75Z"/>
  <circle class="cls-1" cx="66.86" cy="58.97" r="1.25"/>
  <path class="cls-1" d="M66.86,54.75c-2.42,0-4.39,1.97-4.39,4.39,0,1.17.46,2.28,1.29,3.11l3.1,3.11,3.1-3.11s0,0,0,0c.83-.83,1.29-1.94,1.29-3.11,0-2.42-1.97-4.39-4.39-4.39ZM66.86,61.72c-1.52,0-2.75-1.23-2.75-2.75s1.23-2.75,2.75-2.75,2.75,1.23,2.75,2.75-1.23,2.75-2.75,2.75Z"/>
  <path d="M59.25,16h1.5c0-1.79,1.46-3.25,3.25-3.25v-1.5c-1.79,0-3.25-1.46-3.25-3.25h-1.5c0,1.79-1.46,3.25-3.25,3.25v1.5c1.79,0,3.25,1.46,3.25,3.25ZM60,10.54c.38.59.87,1.09,1.46,1.46-.59.38-1.09.87-1.46,1.46-.38-.59-.87-1.09-1.46-1.46.59-.38,1.09-.87,1.46-1.46Z"/>
  <path d="M60.44,17.47v1.5c2.77,0,5.03,2.26,5.03,5.03h1.5c0-2.77,2.25-5.03,5.03-5.03v-1.5c-2.77,0-5.03-2.26-5.03-5.03h-1.5c0,2.77-2.26,5.03-5.03,5.03ZM66.22,15.47c.62,1.17,1.58,2.13,2.75,2.75-1.17.62-2.13,1.58-2.75,2.75-.62-1.17-1.58-2.13-2.75-2.75,1.17-.62,2.13-1.58,2.75-2.75Z"/>
  <path d="M13.14,20.22c-1.52,0-2.75,1.23-2.75,2.75s1.23,2.75,2.75,2.75,2.75-1.23,2.75-2.75-1.23-2.75-2.75-2.75ZM13.14,24.22c-.69,0-1.25-.56-1.25-1.25s.56-1.25,1.25-1.25,1.25.56,1.25,1.25-.56,1.25-1.25,1.25Z"/>
  <path d="M66.86,53.25c-3.25,0-5.89,2.64-5.89,5.89,0,.04,0,.07,0,.11H24.57c-4.31,0-7.82-3.7-7.82-8.25s3.51-8.25,7.82-8.25h6.72c.38,4.47,4.14,8,8.71,8s8.33-3.53,8.71-8h6.72c5.14,0,9.32-4.37,9.32-9.75s-4.18-9.75-9.32-9.75H19.03s0-.07,0-.11c0-3.25-2.64-5.89-5.89-5.89s-5.89,2.64-5.89,5.89c0,1.58.62,3.06,1.73,4.17l3.63,3.64c.14.14.33.22.53.22s.39-.08.53-.22l3.63-3.64c.73-.72,1.24-1.61,1.51-2.57h36.62c4.31,0,7.82,3.7,7.82,8.25s-3.51,8.25-7.82,8.25h-6.72c-.38-4.47-4.14-8-8.71-8s-8.33,3.53-8.71,8h-6.72c-5.14,0-9.32,4.37-9.32,9.75s4.18,9.75,9.32,9.75h36.62c.27.96.78,1.84,1.51,2.56l3.63,3.64c.14.14.33.22.53.22s.39-.08.53-.22l3.63-3.64c1.12-1.11,1.73-2.6,1.73-4.17,0-3.25-2.64-5.89-5.89-5.89ZM16.24,26.25s0,0,0,0l-3.1,3.11-3.1-3.11c-.83-.83-1.29-1.94-1.29-3.11,0-2.42,1.97-4.39,4.39-4.39s4.39,1.97,4.39,4.39c0,1.17-.46,2.28-1.29,3.11ZM32.75,42c0-4,3.25-7.25,7.25-7.25s7.25,3.25,7.25,7.25-3.25,7.25-7.25,7.25-7.25-3.25-7.25-7.25ZM69.96,62.25s0,0,0,0l-3.1,3.11-3.1-3.11c-.83-.83-1.29-1.94-1.29-3.11,0-2.42,1.97-4.39,4.39-4.39s4.39,1.97,4.39,4.39c0,1.18-.46,2.28-1.29,3.11Z"/>
  <path d="M66.86,56.22c-1.52,0-2.75,1.23-2.75,2.75s1.23,2.75,2.75,2.75,2.75-1.23,2.75-2.75-1.23-2.75-2.75-2.75ZM66.86,60.22c-.69,0-1.25-.56-1.25-1.25s.56-1.25,1.25-1.25,1.25.56,1.25,1.25-.56,1.25-1.25,1.25Z"/>
  <path d="M40,46.18c2.3,0,4.18-1.87,4.18-4.18s-1.88-4.18-4.18-4.18-4.18,1.87-4.18,4.18,1.88,4.18,4.18,4.18ZM37.32,42c0-1.48,1.2-2.68,2.68-2.68s2.68,1.2,2.68,2.68-1.2,2.68-2.68,2.68-2.68-1.2-2.68-2.68Z"/>
</svg>