<svg xmlns="http://www.w3.org/2000/svg" viewBox="0 0 80 80"><polygon points="39.25 47 40.75 47 40.75 40.75 47 40.75 47 39.25 40.75 39.25 40.75 33 39.25 33 39.25 39.25 33 39.25 33 40.75 39.25 40.75 39.25 47"/><path d="M40,54.75A14.75,14.75,0,1,0,25.25,40,14.76686,14.76686,0,0,0,40,54.75Zm0-28A13.25,13.25,0,1,1,26.75,40,13.26522,13.26522,0,0,1,40,26.75Z"/><path d="M13.68652,44.71832a26.76685,26.76685,0,0,0,4.37207,10.5503,4.727,4.727,0,0,0,6.66626,6.67962,26.756,26.756,0,0,0,10.55786,4.37537,4.72661,4.72661,0,0,0,9.43335.0119,26.76308,26.76308,0,0,0,10.57227-4.37646,4.72654,4.72654,0,0,0,6.67651-6.6615A26.76618,26.76618,0,0,0,66.346,44.715a4.72631,4.72631,0,0,0-.01734-9.43177A26.74177,26.74177,0,0,0,61.9563,24.713a4.72653,4.72653,0,0,0-6.6814-6.66107,26.74691,26.74691,0,0,0-10.55761-4.37543,4.72718,4.72718,0,0,0-9.43628.01715,26.75286,26.75286,0,0,0-10.54688,4.36579,4.7282,4.7282,0,0,0-6.66479,6.68506,26.75222,26.75222,0,0,0-4.37061,10.536,4.72753,4.72753,0,0,0-.01221,9.43786ZM23.91309,60.68311a3.328,3.328,0,0,1-4.59571,0,3.25,3.25,0,1,1,4.59571,0ZM40,69.25A3.25,3.25,0,1,1,43.25,66,3.25377,3.25377,0,0,1,40,69.25Zm20.68262-8.56689a3.328,3.328,0,0,1-4.59571,0,3.25,3.25,0,1,1,4.59571,0ZM69.25,40A3.25,3.25,0,1,1,66,36.75,3.25377,3.25377,0,0,1,69.25,40ZM56.08691,19.31689a3.25,3.25,0,0,1,4.59571,4.59668,3.32793,3.32793,0,0,1-4.59571,0A3.25355,3.25355,0,0,1,56.08691,19.31689ZM40,10.75A3.25,3.25,0,1,1,36.75,14,3.25377,3.25377,0,0,1,40,10.75ZM19.31738,19.31689a3.25,3.25,0,0,1,4.59571,4.59668,3.32793,3.32793,0,0,1-4.59571,0A3.25353,3.25353,0,0,1,19.31738,19.31689ZM19.23022,25.703a4.72677,4.72677,0,0,0,6.46534-6.485,25.25472,25.25472,0,0,1,9.72461-4.02588,4.72723,4.72723,0,0,0,9.16455-.01532,25.25106,25.25106,0,0,1,9.72534,4.03052,4.72531,4.72531,0,0,0,6.49512,6.4768,25.2574,25.2574,0,0,1,4.02343,9.72962,4.72882,4.72882,0,0,0,.01538,9.17743,25.25664,25.25664,0,0,1-4.02832,9.73034,4.72951,4.72951,0,0,0-6.49829,6.48541,25.26431,25.26431,0,0,1-9.72925,4.02753,4.72825,4.72825,0,0,0-9.17285-.01105,25.25262,25.25262,0,0,1-9.72534-4.03118,4.72392,4.72392,0,0,0-6.47363-6.48768A25.23531,25.23531,0,0,1,15.186,44.58179a4.72674,4.72674,0,0,0,.01171-9.16A25.25386,25.25386,0,0,1,19.23022,25.703ZM14,36.75A3.25,3.25,0,1,1,10.75,40,3.25377,3.25377,0,0,1,14,36.75Z"/></svg>