<?xml version="1.0" encoding="UTF-8"?>
<svg xmlns="http://www.w3.org/2000/svg" viewBox="0 0 80 80" role="img" aria-label="ThousandEyes">
<g id="art">
  <path fill="#000000" d="M18.00,39.20 L17.73,40.00 L20.95,44.56 L28.20,51.80 L35.17,56.10 L39.73,57.71 L42.68,58.24 L48.05,58.24 L51.00,57.71 L54.22,56.63 L58.51,54.49 L62.27,51.80 L67.37,46.98 L73.00,39.73 L68.71,34.10 L61.20,27.12 L55.29,23.63 L48.85,21.76 L40.54,22.02 L36.78,23.10 L32.22,25.24 L26.59,29.27 L21.76,34.10 Z"/>
  <path fill="#000000" d="M30.34,21.76 L23.37,23.90 L16.93,27.93 L9.95,34.90 L7.00,39.20 L7.00,40.00 L10.76,45.63 L14.24,49.39 L18.80,53.15 L21.22,54.76 L25.78,56.90 L29.54,57.98 L32.76,58.24 L27.66,55.29 L22.29,51.00 L16.12,44.56 L12.90,40.00 L15.59,35.98 L22.29,28.73 L26.85,24.98 L32.49,21.76 Z"/>
</g>
</svg>
