<svg xmlns="http://www.w3.org/2000/svg" viewBox="0 0 100 100" fill="none" aria-hidden="true">
  <circle cx="50" cy="50" r="42" stroke="#58ACD8" stroke-width="1.2" opacity=".55"/>
  <circle cx="50" cy="50" r="32" stroke="#58ACD8" stroke-width="1.2" opacity=".65"/>
  <circle cx="50" cy="50" r="22" stroke="#58ACD8" stroke-width="1.2" opacity=".75"/>
  <circle cx="50" cy="50" r="12" stroke="#58ACD8" stroke-width="1.2" opacity=".85"/>
  <line x1="50" y1="50" x2="74" y2="26" stroke="#ED7D31" stroke-width="1.4"/>
  <line x1="50" y1="50" x2="74" y2="74" stroke="#ED7D31" stroke-width="1.4"/>
  <line x1="50" y1="50" x2="26" y2="74" stroke="#70AD47" stroke-width="1.4"/>
  <line x1="50" y1="50" x2="30" y2="30" stroke="#58ACD8" stroke-width="1.4"/>
  <line x1="50" y1="50" x2="36" y2="58" stroke="#70AD47" stroke-width="1.1" opacity=".9"/>
  <line x1="50" y1="50" x2="40" y2="66" stroke="#70AD47" stroke-width="1.1" opacity=".9"/>
  <line x1="50" y1="50" x2="44" y2="72" stroke="#70AD47" stroke-width="1.1" opacity=".9"/>
  <circle cx="36" cy="58" r="3.2" fill="#70AD47"/>
  <circle cx="40" cy="66" r="3.2" fill="#70AD47"/>
  <circle cx="44" cy="72" r="3.2" fill="#70AD47"/>
  <circle cx="74" cy="26" r="5.5" fill="#ED7D31"/>
  <circle cx="74" cy="74" r="5.5" fill="#ED7D31"/>
  <circle cx="26" cy="74" r="5.5" fill="#70AD47"/>
  <circle cx="30" cy="30" r="5.5" fill="#58ACD8"/>
  <path d="M50 14 L56 46 L50 42 L44 46 Z" fill="#58ACD8"/>
  <path d="M50 86 L56 54 L50 58 L44 54 Z" fill="#2E75B6"/>
  <path d="M14 50 L46 44 L42 50 L46 56 Z" fill="#58ACD8"/>
  <path d="M86 50 L54 44 L58 50 L54 56 Z" fill="#2E75B6"/>
</svg>
