<svg xmlns="http://www.w3.org/2000/svg" viewBox="0 0 32 32">
  <rect width="32" height="32" rx="6" fill="#0D1B2A"/>
  <circle cx="16" cy="16" r="12" stroke="#58ACD8" stroke-width=".8" fill="none" opacity=".7"/>
  <circle cx="16" cy="16" r="8" stroke="#58ACD8" stroke-width=".8" fill="none" opacity=".8"/>
  <line x1="16" y1="16" x2="24" y2="8" stroke="#ED7D31" stroke-width="1"/>
  <line x1="16" y1="16" x2="24" y2="24" stroke="#ED7D31" stroke-width="1"/>
  <line x1="16" y1="16" x2="8" y2="24" stroke="#70AD47" stroke-width="1"/>
  <circle cx="24" cy="8" r="2" fill="#ED7D31"/>
  <circle cx="24" cy="24" r="2" fill="#ED7D31"/>
  <circle cx="8" cy="24" r="2" fill="#70AD47"/>
  <path d="M16 6 L18 14 L16 13 L14 14 Z" fill="#58ACD8"/>
  <path d="M16 26 L18 18 L16 19 L14 18 Z" fill="#2E75B6"/>
  <path d="M6 16 L14 14 L13 16 L14 18 Z" fill="#58ACD8"/>
  <path d="M26 16 L18 14 L19 16 L18 18 Z" fill="#2E75B6"/>
</svg>
